# xmcd
#
# Track frame offsets:
#	151
#	3354
#	31679
#	68430
#	92563
#	111050
#	135431
#	161103
#	183369
#	203534
#	226484
#
# Disc length: 3371 seconds
#
# Revision: 1
# Processed by: cddbd v1.4PL0 Copyright (c) Steve Scherf et al.
# Submitted via: CDmax 2.0
#
DISCID=7a0d290b
DTITLE=Eric Clapton - Must Change (disc1)
DYEAR=2003
DGENRE=Blues
TTITLE0=Introduction
TTITLE1=When You've Got a Good Friend~Crossroads
TTITLE2=I Shot the Sheriff
TTITLE3=Bell Bottom Blues
TTITLE4=Reconsider Baby
TTITLE5=Can't Find My Way Home
TTITLE6=White Room
TTITLE7=I Want a Little Girl
TTITLE8=Got My Mojo Working
TTITLE9=Hoochie Coochie Man
TTITLE10=Change the World
EXTD=Eric Clapton\t\tguitar, vocals\nAndy Fairweather Low\tguitar, vocals\nNa
EXTD=than East\t\tbass, vocals\nSteve Gadd\t\tdrums\nChris Stainton\t\tkeyboa
EXTD=rds\n\nRecorded live at Budokan, Tokyo, Japan on December 2, 2003
EXTT0=
EXTT1=
EXTT2=
EXTT3=
EXTT4=
EXTT5=
EXTT6=
EXTT7=
EXTT8=
EXTT9=
EXTT10=
PLAYORDER=
